<?xml version="1.0" encoding="UTF-8" standalone="no"?>
<!DOCTYPE svg PUBLIC "-//W3C//DTD SVG 1.1//EN"
 "http://www.w3.org/Graphics/SVG/1.1/DTD/svg11.dtd">
<!-- Generated by graphviz version 8.1.0 (20230707.0739)
 -->
<!-- Title: G Pages: 1 -->
<svg width="92pt" height="116pt"
 viewBox="0.00 0.00 91.50 116.00" xmlns="http://www.w3.org/2000/svg" xmlns:xlink="http://www.w3.org/1999/xlink">
<g id="graph0" class="graph" transform="scale(1 1) rotate(0) translate(4 112)">
<title>G</title>
<polygon fill="#f0f0f0" stroke="none" points="-4,4 -4,-112 87.5,-112 87.5,4 -4,4"/>
<!-- 1 -->
<g id="node1" class="node">
<title>1</title>
<path fill="#ffb366" stroke="black" d="M71.5,-108C71.5,-108 12,-108 12,-108 6,-108 0,-102 0,-96 0,-96 0,-84 0,-84 0,-78 6,-72 12,-72 12,-72 71.5,-72 71.5,-72 77.5,-72 83.5,-78 83.5,-84 83.5,-84 83.5,-96 83.5,-96 83.5,-102 77.5,-108 71.5,-108"/>
<text text-anchor="middle" x="41.75" y="-86.5" font-family="Arial" font-size="10.00" fill="white">/routes/node.go</text>
</g>
<!-- 2 -->
<g id="node2" class="node">
<title>2</title>
<path fill="#ff6b6b" stroke="black" d="M56.75,-36C56.75,-36 26.75,-36 26.75,-36 20.75,-36 14.75,-30 14.75,-24 14.75,-24 14.75,-12 14.75,-12 14.75,-6 20.75,0 26.75,0 26.75,0 56.75,0 56.75,0 62.75,0 68.75,-6 68.75,-12 68.75,-12 68.75,-24 68.75,-24 68.75,-30 62.75,-36 56.75,-36"/>
<text text-anchor="middle" x="41.75" y="-14.5" font-family="Arial" font-size="10.00" fill="white">red</text>
</g>
<!-- 1&#45;&gt;2 -->
<g id="edge1" class="edge">
<title>1&#45;&gt;2</title>
<path fill="none" stroke="#e84855" d="M41.75,-71.7C41.75,-64.24 41.75,-55.32 41.75,-46.97"/>
<polygon fill="#e84855" stroke="#e84855" points="45.25,-47.1 41.75,-37.1 38.25,-47.1 45.25,-47.1"/>
</g>
</g>
</svg>
